<?xml version="1.0" encoding="UTF-8"?>
<svg width="24px" height="43px" viewBox="0 0 24 43" version="1.1" xmlns="http://www.w3.org/2000/svg" xmlns:xlink="http://www.w3.org/1999/xlink">
    <!-- Generator: Sketch 43.2 (39069) - http://www.bohemiancoding.com/sketch -->
    <title>scrollDown</title>
    <desc>Created with Sketch.</desc>
    <defs></defs>
    <g id="Page-1" stroke="none" stroke-width="1" fill="none" fill-rule="evenodd">
        <g id="Desktop-HD" transform="translate(-708.000000, -871.000000)" fill="#FFFFFF">
            <g id="Page-1" transform="translate(708.000000, 871.000000)">
                <g id="scrollDown">
                    <path d="M13.051,0.1504 L11.2014,0.1504 C8.00025,0.44923 5.5004,1.8008 3.5999,3.69925 C1.8499,5.44925 0.3499,8.04885 0.1507,11.09975 C-0.0993,14.40055 0.1507,17.90075 0.1507,21.54875 C0.1507,24.94915 -0.0993,28.54875 0.1507,31.89825 C0.59992,37.94925 5.4007,42.4492495 11.2502,42.84725 C17.3012,43.24764 21.6992,39.54645 23.3012,35.19675 C23.65081,34.24755 23.70159,33.34715 23.9516,32.09715 L23.9516,10.99765 C23.00045,4.69865 19.35005,1.09915 13.0511,0.15015 L13.051,0.1504 Z M21.1505,34.2499 C19.69935,38.0995 16,40.4999 12,40.4999 C7.4492,40.4999 3.0995,37.2499 2.301,32.4489 C1.85178,29.8981 2.20139,26.1479 2.20139,23.3979 L2.20139,14.2474 C2.20139,11.097 2.45139,8.6964 3.80099,6.6964 C5.35179,4.3956 7.95139,2.6456 11.95149,2.5968 C16.90069,2.54602 20.85199,6.0968 21.65049,10.3468 C21.90049,11.6964 21.7501,23.8468 21.84971,28.3978 C21.84971,30.55015 21.7501,32.74935 21.15051,34.2493 L21.1505,34.2499 Z" id="shape"></path>
                    <path d="M16.199,14.949 L13.2986,17.8494 C13.2986,14.4998 13.24782,9.4004 13.24782,7.4004 C13.24782,5.9512 10.79862,6 10.79862,7.45118 L10.79862,17.80068 L7.89822,14.90028 C6.89822,13.90028 5.09742,15.70108 6.09742,16.70108 C6.44703,17.05069 8.84742,19.35148 10.89822,21.40028 C10.99783,21.65028 11.199,21.80067 11.44902,21.90028 C11.59941,21.99989 11.7498,22.05067 11.89824,22.0995 C12.24785,22.19911 12.59744,22.15028 12.89824,21.8495 C13.29863,21.44911 15.89824,18.7499 17.99774,16.6505 C18.99969,15.5997 17.24969,13.9005 16.19889,14.94935 L16.199,14.949 Z" id="arrow"></path>
                </g>
            </g>
        </g>
    </g>
</svg>